<svg xmlns="http://www.w3.org/2000/svg" width="200" height="200" viewBox="-84.531 -84.628 200 200"><path fill="#1AE238" d="M108.698 43.236c-15.417 50.393-69.625 78.491-121.074 62.757-51.448-15.737-80.661-69.351-65.246-119.751C-62.207-64.153-8.005-92.251 43.443-76.515 94.9-60.777 124.112-7.166 108.698 43.236z"/><path fill="#FFF" stroke="#FFF" stroke-width=".5" stroke-miterlimit="10" d="M-3.391 31.338c2.264 4.371 5.592 7.674 9.203 9.219 3.711 1.542 8.141 1.542 14.096-1.981 1.854-1.109 3.89-2.396 6.715-2.449 2.793-.059 5.71 1.419 8.43 4.127 4.807 6.521 9.79 13.163 14.452 19.812 2.046 3.723 1.657 7.719-.187 10.404-1.847 2.661-4.555 4.276-6.982 5.579-13.634 7.421-27.498 8.793-39.033 3.281-11.057-5.554-19.917-17.007-28.664-33.096A8208.43 8208.43 0 0 1-35.804 27.09C-44.58 11.025-49.352-2.544-47.88-14.597c1.936-14.874 13.105-24.026 24.653-29.722 2.46-1.241 5.359-2.511 8.653-2.511 3.294 0 6.906 1.918 8.959 5.658 3.012 7.476 5.89 15.225 8.755 22.759.759 3.74.376 6.906-1.254 9.129C.268-7.041-1.977-6.093-3.937-5.229c-6.32 2.84-8.789 6.437-9.588 10.294-.686 3.786.245 8.31 2.708 12.568l7.426 13.705zm-12.965-10.812c-2.858-5.054-4.528-10.917-3.361-16.709 1.188-5.802 5.448-11.181 13.092-14.624 1.875-.846 2.933-1.485 3.368-2.06.408-.568.752-1.489.231-4.173l-8.141-21.218c-1.209-2.219-1.922-2.373-3.346-2.373-1.42 0-3.639.768-5.81 1.857-13.99 7.253-20.124 15.151-21.319 25.042-1.213 9.856 2.84 22.389 11.363 37.999a5740.63 5740.63 0 0 0 10.422 19.14c8.51 15.627 16.896 25.919 25.959 30.454 9.059 4.557 19.192 4.041 33.214-3.227 2.134-1.157 4.021-2.484 4.819-3.66.814-1.161 1.059-1.829-.137-4.031L30.51 44.489c-1.986-1.939-2.966-2.158-3.669-2.146-.741.014-1.884.521-3.64 1.553-7.229 4.277-14.188 4.686-19.752 2.398-5.572-2.28-9.646-6.928-12.339-12.07l-7.466-13.698zm39.928-66.547a3.231 3.231 0 0 0 2.324 3.753C60.834-31.581 80.625 4.744 70.147 38.957c-.422 1.658.484 3.387 2.114 3.924a3.223 3.223 0 0 0 3.914-2.087C87.604 3.392 65.884-36.495 27.7-48.177c-1.732-.492-3.554.451-4.128 2.156zm-5.415 17.686c-.388 1.563.72 3.355 2.319 3.767C45.431-16.936 59.571 8.99 52.099 33.453c-.503 1.55.501 3.42 2.112 3.902 1.565.487 3.46-.496 3.914-2.073C66.57 7.653 50.508-21.837 22.272-30.47c-1.71-.496-3.525.446-4.115 2.135z"/></svg>